PathFileType	4	(X/Y/Z)	OpenSim_Sub10_EMGStiffKnee_Magnet.trc
DataRate	CameraRate	NumFrames	NumMarkers	Units	OrigDataRate	OrigDataStartFrame	OrigNumFrames
100	100	36	8	m	100	2093	8371
Frame#	Time	torso_imu_offset_imu	pelvis_imu_offset_imu	tibia_r_imu_offset_imu	femur_r_imu_offset_imu	tibia_l_imu_offset_imu	femur_l_imu_offset_imu	toes_r_imu_offset_imu	toes_l_imu_offset_imu
				X1	Y1	Z1	X2	Y2	Z2	X3	Y3	Z3	X4	Y4	Z4	X5	Y5	Z5	X6	Y6	Z6	X7	Y7	Z7	X8		Y8	Z8	

2093	20.92000000	-0.92700200	0.02124000	0.20898400	-0.55102500	-0.09887700	-0.78051800	-0.64794900	-0.63501000	-0.03222700	-0.65942400	-0.50585900	0.11059600	-0.63745100	0.50683600	0.11157200	-0.78344700	0.29541000	0.20068400	-0.66259800	-0.23974600	-0.34179700	-0.71899400	-0.13427700	-0.38818400
2094	20.93000000	-0.92724600	0.02539100	0.21752900	-0.55297900	-0.10522500	-0.78027300	-0.64575200	-0.63916000	-0.02978500	-0.64868200	-0.51196300	0.11767600	-0.65258800	0.49585000	0.10546900	-0.78295900	0.28247100	0.20288100	-0.66455100	-0.24585000	-0.33960000	-0.70776400	-0.13623000	-0.40161100
2095	20.94000000	-0.92309600	0.02954100	0.21752900	-0.55297900	-0.10742200	-0.77783200	-0.64135700	-0.64331100	-0.02514600	-0.64428700	-0.52026400	0.11816400	-0.66113300	0.47827100	0.09985400	-0.79150400	0.27148400	0.19409200	-0.66455100	-0.24780300	-0.33544900	-0.69433600	-0.13842800	-0.41748000
2096	20.95000000	-0.92089800	0.02539100	0.22436500	-0.55517600	-0.10522500	-0.78247100	-0.63501000	-0.64331100	-0.02954100	-0.64013700	-0.51831100	0.12255900	-0.66723600	0.45849600	0.09863300	-0.79345700	0.26489300	0.19189500	-0.66235400	-0.24780300	-0.33325200	-0.69165000	-0.14477500	-0.42407200
2097	20.96000000	-0.92089800	0.03173800	0.21752900	-0.55078100	-0.10937500	-0.78002900	-0.63916000	-0.64550800	-0.02954100	-0.64013700	-0.52441400	0.12744100	-0.68261700	0.44751000	0.09716800	-0.79077100	0.25415000	0.19873000	-0.65795900	-0.25390600	-0.32910200	-0.68042000	-0.14697300	-0.44433600
2098	20.97000000	-0.92334000	0.04028300	0.21923800	-0.54834000	-0.11157200	-0.78466800	-0.63061500	-0.65185500	-0.02929700	-0.63378900	-0.52441400	0.12963900	-0.69116200	0.43212900	0.09790000	-0.80151400	0.24316400	0.19677700	-0.65795900	-0.25390600	-0.33325200	-0.66918900	-0.14892600	-0.45336900
2099	20.98000000	-0.92553700	0.04028300	0.22143600	-0.54199200	-0.11572300	-0.77978500	-0.62841800	-0.65600600	-0.02905300	-0.62500000	-0.53466800	0.14379900	-0.69506800	0.41455100	0.08544900	-0.80127000	0.23437500	0.19458000	-0.65795900	-0.25805700	-0.33105500	-0.66918900	-0.15112300	-0.46679700
2100	20.99000000	-0.92334000	0.04028300	0.22143600	-0.54614300	-0.11572300	-0.78442400	-0.62841800	-0.65600600	-0.03369100	-0.62500000	-0.54101600	0.14404300	-0.70825200	0.40356400	0.09057600	-0.79858400	0.22143600	0.19238300	-0.65380900	-0.26001000	-0.33520500	-0.65551800	-0.15747100	-0.47558600
2101	21.00000000	-0.92334000	0.04028300	0.22363300	-0.54199200	-0.11352500	-0.78930700	-0.62402300	-0.66210900	-0.03784200	-0.61669900	-0.53881800	0.14624000	-0.71655300	0.38378900	0.08276400	-0.80273400	0.21484400	0.19238300	-0.65161100	-0.26196300	-0.33105500	-0.64209000	-0.15722700	-0.48242200
2102	21.01000000	-0.92358400	0.04223600	0.22363300	-0.54174800	-0.11987300	-0.77978500	-0.62597700	-0.66626000	-0.03784200	-0.61840800	-0.54711900	0.14892600	-0.72290000	0.36840800	0.07251000	-0.80249000	0.20825200	0.18798800	-0.65136700	-0.26806600	-0.33496100	-0.63305700	-0.15942400	-0.49804700
2103	21.02000000	-0.92163100	0.05078100	0.22534200	-0.53955100	-0.12182600	-0.78418000	-0.62158200	-0.66845700	-0.03979500	-0.61816400	-0.55322300	0.14697300	-0.73144500	0.35961900	0.07080100	-0.80883800	0.20166000	0.19043000	-0.64917000	-0.27002000	-0.33715800	-0.62817400	-0.16577100	-0.50927700
2104	21.03000000	-0.91918900	0.04443400	0.22363300	-0.53759800	-0.11352500	-0.78686500	-0.61718800	-0.67675800	-0.05297900	-0.61206100	-0.55322300	0.14453100	-0.73974600	0.33764600	0.06079100	-0.80615200	0.18652300	0.19043000	-0.64697300	-0.27417000	-0.33496100	-0.61254900	-0.16577100	-0.51367200
2105	21.04000000	-0.92163100	0.04858400	0.22338900	-0.54174800	-0.11767600	-0.78442400	-0.61303700	-0.67456100	-0.04418900	-0.60571300	-0.55102500	0.14697300	-0.74389600	0.32666000	0.06591800	-0.81054700	0.18212900	0.19067400	-0.64892600	-0.28442400	-0.33276400	-0.61035200	-0.16772500	-0.52490200
2106	21.05000000	-0.91723600	0.04858400	0.22778300	-0.53759800	-0.11132800	-0.78686500	-0.60449200	-0.68090800	-0.05517600	-0.60351600	-0.55737300	0.14257800	-0.74804700	0.31567400	0.05981400	-0.81250000	0.17993200	0.19067400	-0.64453100	-0.29052700	-0.33252000	-0.60131800	-0.16552700	-0.53173800
2107	21.06000000	-0.92138700	0.04663100	0.22558600	-0.53979500	-0.11572300	-0.77978500	-0.60205100	-0.68701200	-0.05712900	-0.60522500	-0.56762700	0.14062500	-0.74975600	0.29809600	0.06054700	-0.81030300	0.17578100	0.19751000	-0.64453100	-0.29443400	-0.33252000	-0.59228500	-0.17211900	-0.53833000
2108	21.07000000	-0.91723600	0.04663100	0.22778300	-0.53759800	-0.11767600	-0.78198200	-0.59350600	-0.69116200	-0.05908200	-0.60546900	-0.55932600	0.12890600	-0.75415000	0.28930700	0.05664100	-0.81665000	0.16699200	0.19067400	-0.64013700	-0.29858400	-0.33862300	-0.58105500	-0.17407200	-0.54736300
2109	21.08000000	-0.91699200	0.04223600	0.22583000	-0.53808600	-0.10302700	-0.78027300	-0.58496100	-0.69970700	-0.06787100	-0.59692400	-0.56347700	0.12451200	-0.75830100	0.27612300	0.04834000	-0.81201200	0.16479500	0.19531200	-0.64404300	-0.30664100	-0.33642600	-0.57202100	-0.17627000	-0.55175800
2110	21.09000000	-0.91894500	0.03588900	0.22827100	-0.55078100	-0.10302700	-0.78027300	-0.57885700	-0.69335900	-0.07031200	-0.59472700	-0.56543000	0.12695300	-0.76245100	0.26953100	0.05542000	-0.81396500	0.15600600	0.19995100	-0.64599600	-0.31494100	-0.33227500	-0.57421900	-0.17602500	-0.56762700
2111	21.10000000	-0.91723600	0.04663100	0.22778300	-0.54223600	-0.10107400	-0.78271500	-0.57861300	-0.70166000	-0.07666000	-0.59887700	-0.56762700	0.12231400	-0.76635700	0.25195300	0.05419900	-0.81396500	0.15380900	0.19775400	-0.63964800	-0.31884800	-0.33203100	-0.56518600	-0.17382800	-0.56298800
2112	21.11000000	-0.91894500	0.03588900	0.22168000	-0.54882800	-0.09887700	-0.78051800	-0.57202100	-0.71215800	-0.07861300	-0.59448200	-0.57373000	0.11352500	-0.77514600	0.24536100	0.05688500	-0.81372100	0.14965800	0.19775400	-0.64990200	-0.32519500	-0.33007800	-0.56054700	-0.17822300	-0.56762700
2113	21.12000000	-0.91455100	0.03393600	0.21948200	-0.54467800	-0.09252900	-0.78295900	-0.56543000	-0.71826200	-0.08496100	-0.59228500	-0.57788100	0.10449200	-0.76855500	0.24755900	0.05883800	-0.80908200	0.14086900	0.20239300	-0.64965800	-0.33740200	-0.32983400	-0.55835000	-0.18261700	-0.56982400
2114	21.13000000	-0.92089800	0.03173800	0.22192400	-0.55151400	-0.08642600	-0.77636700	-0.55908200	-0.72241200	-0.08715800	-0.59423800	-0.58618200	0.10937500	-0.77270500	0.23657200	0.05737300	-0.80664100	0.13867200	0.21362300	-0.65356400	-0.34155300	-0.32348600	-0.55371100	-0.18261700	-0.56762700
2115	21.14000000	-0.92089800	0.02954100	0.21752900	-0.55371100	-0.08227500	-0.77417000	-0.54443400	-0.72241200	-0.09594700	-0.59448200	-0.57788100	0.10449200	-0.77026400	0.23657200	0.06835900	-0.81103500	0.13427700	0.21362300	-0.65771500	-0.34985400	-0.32348600	-0.54687500	-0.18896500	-0.57421900
2116	21.15000000	-0.91626000	0.01904300	0.22241200	-0.55151400	-0.08007800	-0.77197300	-0.53784200	-0.72876000	-0.10034200	-0.59008800	-0.58203100	0.10009800	-0.77002000	0.22778300	0.06665000	-0.81103500	0.13232400	0.22045900	-0.66186500	-0.35205100	-0.31494100	-0.55542000	-0.19580100	-0.57202100
2117	21.16000000	-0.92285200	0.02539100	0.21557600	-0.56469700	-0.07397500	-0.76977500	-0.52929700	-0.73486300	-0.10229500	-0.59448200	-0.57788100	0.09301800	-0.77026400	0.22998000	0.06884800	-0.80615200	0.12353500	0.21826200	-0.66772500	-0.36035200	-0.30444300	-0.55322300	-0.19799800	-0.56982400
2118	21.17000000	-0.92260700	0.01269500	0.22045900	-0.56713900	-0.06567400	-0.75854500	-0.51855500	-0.74316400	-0.11084000	-0.59008800	-0.58398400	0.07714800	-0.76806600	0.23437500	0.07959000	-0.79956100	0.12158200	0.23608400	-0.67407200	-0.36035200	-0.30444300	-0.55761700	-0.19799800	-0.56079100
2119	21.18000000	-0.92016600	0.00219700	0.21191400	-0.56958000	-0.05712900	-0.75878900	-0.50561500	-0.75366200	-0.10595700	-0.59399400	-0.58618200	0.07959000	-0.77026400	0.23852500	0.09057600	-0.80151400	0.11499000	0.24511700	-0.68627900	-0.36669900	-0.29834000	-0.56396500	-0.21142600	-0.55395500
2120	21.19000000	-0.92016600	0.00439500	0.20752000	-0.57177700	-0.05517600	-0.75195300	-0.49707000	-0.75976600	-0.11474600	-0.59619100	-0.58203100	0.07714800	-0.76367200	0.23852500	0.09497100	-0.80371100	0.11279300	0.24536100	-0.68847700	-0.37085000	-0.28979500	-0.56152300	-0.21362300	-0.54711900
2121	21.20000000	-0.92407200	-0.00415000	0.20336900	-0.57617200	-0.05102500	-0.75195300	-0.48437500	-0.76391600	-0.11914100	-0.60253900	-0.58398400	0.07251000	-0.76171900	0.25170900	0.10107400	-0.79492200	0.11279300	0.24975600	-0.69653300	-0.37524400	-0.27954100	-0.57226600	-0.22680700	-0.53808600
2122	21.21000000	-0.92187500	-0.00634800	0.19702100	-0.58300800	-0.03833000	-0.74560500	-0.46948200	-0.77246100	-0.12548800	-0.60058600	-0.58203100	0.07251000	-0.75512700	0.25170900	0.11230500	-0.79711900	0.11279300	0.25415000	-0.70263700	-0.38745100	-0.27099600	-0.58129900	-0.22265600	-0.52710000
2123	21.22000000	-0.92602500	-0.01489300	0.19506800	-0.59204100	-0.02587900	-0.73901400	-0.45678700	-0.77636700	-0.12988300	-0.60668900	-0.57983400	0.05859400	-0.75097700	0.26709000	0.12695300	-0.79467800	0.10839800	0.26318400	-0.71289100	-0.38769500	-0.25439500	-0.60156200	-0.22290000	-0.50000000
2124	21.23000000	-0.92382800	-0.01269500	0.18847700	-0.59228500	-0.01977500	-0.72753900	-0.43335000	-0.78906200	-0.12475600	-0.60888700	-0.57568400	0.05395500	-0.74877900	0.26928700	0.14038100	-0.79052700	0.11718800	0.27661100	-0.71899400	-0.39624000	-0.23559600	-0.61718800	-0.22094700	-0.47753900
2125	21.24000000	-0.93017600	-0.01904300	0.17968800	-0.59668000	-0.01342800	-0.73242200	-0.41845700	-0.79736300	-0.12670900	-0.61108400	-0.57373000	0.05151400	-0.74438500	0.27368200	0.15576200	-0.78173800	0.11962900	0.27661100	-0.73120100	-0.40649400	-0.21655300	-0.63330100	-0.20800800	-0.46191400
2126	21.25000000	-0.92553700	-0.02539100	0.17797900	-0.60131800	-0.00708000	-0.72338900	-0.39746100	-0.80151400	-0.12890600	-0.61767600	-0.56347700	0.04199200	-0.73779300	0.28247100	0.16870100	-0.77319300	0.12841800	0.29003900	-0.73339800	-0.40673800	-0.18969700	-0.65405300	-0.19506800	-0.43505900
2127	21.26000000	-0.92114300	-0.02954100	0.17578100	-0.59716800	-0.00097700	-0.72143600	-0.38012700	-0.81396500	-0.13061500	-0.63037100	-0.55932600	0.03247100	-0.73339800	0.28222700	0.17968800	-0.77124000	0.13476600	0.29663100	-0.74560500	-0.41723600	-0.15820300	-0.66284200	-0.19531200	-0.41040000
2128	21.27000000	-0.92529300	-0.03588900	0.17602500	-0.61230500	-0.00097700	-0.71435500	-0.35913100	-0.81591800	-0.14160200	-0.63061500	-0.55102500	0.03222700	-0.73120100	0.28662100	0.18383800	-0.77319300	0.12841800	0.29223600	-0.74755900	-0.42773400	-0.11230500	-0.67456100	-0.18237300	-0.40600600
